<?xml version="1.0" encoding="UTF-8"?>
<svg id="Layer_1" xmlns="http://www.w3.org/2000/svg" version="1.1" viewBox="0 0 1080 1080">
  <!-- Generator: Adobe Illustrator 29.1.0, SVG Export Plug-In . SVG Version: 2.1.0 Build 142)  -->
  <path d="M269.06,233.56c6.3-2.16,12.54-4.51,18.82-6.75,4.98-1.78,9.98-3.51,14.98-5.25.28-.1.59-.1.87-.19,3.87-1.15,7.73-2.3,11.59-3.46.15-.05.29-.11.43-.16,3.76-1.35,7.5-2.79,11.29-4.04,3.64-1.2,7.36-2.1,11-3.32,3.84-1.28,7.61-2.86,11.44-4.16,4.58-1.55,9.21-2.93,13.8-4.44,3.62-1.19,7.23-2.42,10.82-3.7,2.13-.76,4.2-1.72,6.34-2.43,4.09-1.34,8.21-2.55,12.31-3.82,2.23-.7,4.47-1.36,6.67-2.16,3.75-1.36,7.47-2.82,11.2-4.23.07-.03.16.03.23,0,3.89-1.19,7.87-2.09,11.63-3.65,6.08-2.52,12.17-4.25,18.67-3.5,2.62.3,5.27.43,7.91.48,5.59.1,11.27-.51,16.75.25,15.46,2.16,30.85,4.83,46.24,7.4,2.59.44,5.13,1.29,7.64,2.16,2.99,1.04,5.83,2.71,8.89,3.36,7.75,1.66,15.16,4.29,22.47,7.33,2.07.86,4.32,1.29,6.38,2.19,3.29,1.45,6.44,3.25,9.74,4.68,6.34,2.75,12.76,5.27,19.09,8.06,2.74,1.2,5.28,2.89,7.97,4.21,1.74.86,3.67,1.3,5.38,2.21,4.78,2.55,9.48,5.26,14.22,7.87.45.25,1.03.25,1.51.47,3.49,1.56,6.98,3.14,10.47,4.72,1.02.47,2.02,1.01,3.06,1.43,2.62,1.05,5.3,1.97,7.89,3.12,1.22.54,14.41,6.61,19.84,8.96,5.42,2.34,140.42,63.74,144.16,65.49,3.15,1.48,3.77,3.34,1.41,6.25-2.39,2.94-3.77,6.94-7.47,8.58-1.69.75-3.33,1.62-5.05,2.27-.98.37-2.06.56-3.1.57-3.83.06-7.86.79-11.46-.17-5.56-1.48-10.85-4.05-16.19-6.32-2.27-.97-4.28-2.64-6.58-3.52-4.64-1.78-9.4-3.2-14.09-4.84-3.12-1.09-6.13-2.89-9.33-3.35-8.54-1.23-16-5.9-24.35-7.73-4.81-1.05-9.34-3.39-14.15-4.48-13.59-3.08-27.25-5.84-40.89-8.68-8.08-1.68-16.13-3.62-24.29-4.8-4.85-.7-9.9-.48-14.84-.1-7.19.56-14.36,1.63-21.54,2.48-.08,0-.15-.02-.23-.03-6.2-.39-12.31.71-18.36,2.12-2.91.68-5.73,1.9-8.59,2.88-.29.1-.57.25-.85.35-4.07,1.43-8.1,2.98-12.21,4.23-2.33.71-4.25,3.7-3.56,6.2,1.78,6.41,5.36,11.7,8.92,16.98,3.88,5.76,9.62,9.34,14.67,13.7,4.7,4.05,9.98,7.32,14.72,11.31,4.47,3.77,8.75,7.85,12.76,12.17,3.02,3.25,5.88,6.84,8.11,10.75,2.66,4.67,3.99,10.06,4.74,15.55.1.7,0,1.45,0,2.17-.09,4.99-2.34,8.96-5.28,12.65-2.06,2.57-6.65,4.18-9.09,2.88-1.8-.96-3.59-1.95-5.33-3.02l2.87-11.47c.27-1.09-.39-2.19-1.48-2.46-1.09-.27-2.19.39-2.46,1.48l-2.51,10.05c-3.99-2.84-7.96-5.74-11.75-8.86-6.58-5.41-12.99-11.05-19.45-16.61-2.3-1.98-4.57-4-6.82-6.04-2.75-2.49-5.37-5.17-8.24-7.5-2.76-2.24-5.64-4.39-8.69-6.15-4.67-2.69-9.62-4.82-14.27-7.54-4.1-2.39-7.93-5.28-11.9-7.92-1.25-.83-2.64-1.42-3.84-2.32-3.15-2.37-6.23-4.85-9.34-7.28-4.83-3.78-9.86-7.3-14.45-11.39-5.52-4.92-10.75-10.23-15.94-15.56-5.15-5.28-10.13-10.75-15.11-16.22-2.11-2.32-4.17-4.72-5.98-7.31-1.55-2.2-3.32-4.55-3.91-7.14-.86-3.85-.95-7.97-1.04-11.99-.15-6.72,1.62-12.95,5.04-18.71,1.33-2.23.8-4.61-1.28-6.56-2.37,2.6-5.73,4.18-6.26,8.55-.5,4.11-1.44,8.18-2.37,12.22-1.44,6.29-1.13,12.38.75,18.42.91,2.91-.39,5.4-3.09,6.57-.91.4-1.8.86-2.66,1.36-4.52,2.65-9,5.4-13.56,7.98-3.89,2.2-7.91,4.12-11.78,6.34-6.53,3.75-12.97,7.69-19.49,11.47-3.79,2.2-7.69,4.16-11.47,6.37-4.37,2.56-8.62,5.35-12.99,7.9-5.01,2.92-10.09,5.68-15.13,8.53-1.87,1.06-3.69,2.24-5.58,3.26-2.83,1.52-5.76,2.84-8.56,4.43-4.43,2.53-8.77,5.25-13.18,7.82-2.46,1.43-5.02,2.65-7.47,4.08-2.46,1.44-4.82,3.09-7.28,4.52-2.58,1.5-5.24,2.82-7.83,4.3-1.28.73-2.63,1.46-3.64,2.52-.58.61-.87,2.01-.67,2.86.27,1.11,1.01,1.9,2.57,1.61,2.14-.39,3.92-1.29,5.81-2.43,5.95-3.57,12.08-6.77,18.11-10.17,5.06-2.86,10.07-5.8,15.11-8.71,5.45-3.14,10.91-6.24,16.34-9.41,5.95-3.47,11.86-7,17.79-10.49,2.12-1.25,4.25-2.48,6.39-3.68,2.34-1.31,4.72-2.53,7.05-3.87,2.68-1.55,5.28-3.26,7.98-4.75,4.32-2.4,8.75-4.56,13.03-7.04,5.74-3.31,11.32-6.94,17.07-10.24,7.06-4.06,14.22-7.92,21.46-11.94,1.6,1.75,3.22,3.51,4.83,5.29,4.95,5.47,9.88,10.95,14.85,16.41,1.8,1.98,3.68,3.87,5.54,5.79,2.34,2.42,4.6,4.94,7.07,7.21,2.63,2.42,5.47,4.56,8.18,6.88,2.7,2.31,5.21,4.9,8.03,7,5.32,3.96,10.83,7.63,16.22,11.49,1.22.87,2.2,2.13,3.43,2.96,1.94,1.31,4.06,2.3,5.99,3.61,3.29,2.23,7.03,3.57,10.11,6.31,1.56,1.39,4.18,1.32,5.97,2.51,4.76,3.15,9.52,6.38,13.93,10.06,4.43,3.69,8.32,8.12,12.69,11.91,4.57,3.97,9.43,7.56,14.16,11.32.36.28.65.65,1,.95,1.5,1.26,3,2.51,4.51,3.74.52.43,1.08.81,1.61,1.23,3.23,2.51,6.42,5.08,9.71,7.52.37.27.76.52,1.15.76l-12.16,48.66c-.22.88.18,1.76.92,2.21-13.82-2.48-27.81-3.56-41.89-3.22-8.45.2-16.63.91-24.54,2.04,0-.19,0-.37-.05-.56l-16.22-64.93c-.27-1.09-1.37-1.75-2.46-1.48-1.09.27-1.75,1.37-1.48,2.46l16.22,64.93c.01.06.04.11.06.17-15.18,2.46-29.35,6.51-42.54,11.72-10.35,4.08-20.09,8.88-29.23,14.17l-35.29-55.93c-.6-.95-1.85-1.23-2.79-.63-.95.6-1.23,1.85-.63,2.8l35.22,55.83c-19.69,11.87-36.49,26.02-50.5,40.24-.1-.18-.23-.35-.39-.49l-49.78-44.74c-.83-.75-2.11-.68-2.86.15-.75.83-.68,2.11.15,2.86l49.77,44.74c.12.11.25.19.39.27-20.19,21.08-34.24,42-42.37,55.64l-58.02-32.25c-.98-.54-2.21-.19-2.76.79-.54.98-.19,2.21.79,2.76l57.93,32.21c-1.89,3.28-3.37,6-4.42,8.01,0,0,0,.01,0,.02-1.17,2.24-1.76,3.48-1.78,3.53-.43.89-.14,1.96.67,2.53,56.97,39.75,114.69,64.22,171.56,72.73,15.29,2.29,30.52,3.43,45.67,3.43,30.16,0,59.94-4.53,88.98-13.55,75.52-23.47,120.59-69.75,122.44-71.68.17-.17.25-.27.25-.27.21-.28.33-.62.38-.96.06-.38.01-.76-.13-1.11-.03-.07-.04-.15-.08-.22-.05-.08-1.31-2.22-3.72-5.87l58.84-32.71c.98-.55,1.33-1.78.79-2.76-.55-.98-1.78-1.33-2.76-.79l-59.14,32.88c-4.55-6.66-11.66-16.42-21.14-27.57-8.47-9.97-18.84-21.04-31-32.03-14.43-13.03-29.49-24.26-44.99-33.57-.68-.41-1.36-.82-2.04-1.22.3.16.61.25.93.25.67,0,1.33-.33,1.72-.95l35.71-56.6c.6-.95.31-2.2-.63-2.8-.95-.6-2.2-.31-2.79.63l-35.71,56.6c-.57.91-.33,2.09.52,2.71-7.38-4.33-14.86-8.23-22.42-11.68-16.64-7.6-33.69-13.02-51.01-16.25.76-.14,1.41-.7,1.61-1.5l11.84-47.4c.19.14.38.26.56.41,7.22,5.01,12.98,2.61,13.64,2.1,2.42-1.89,5.06-3.36,7.07-5.97,1.4-1.83,2.7-3.45,3.06-5.81,3.59-14.65.28-21.13.2-21.51-.88-4.29-2.57-8.13-5.19-11.49-2.85-3.64-5.33-7.69-8.53-10.92-4.95-5.01-10.33-9.53-15.61-14.16-2.28-2-4.77-3.72-7.17-5.57-3.23-2.5-6.67-4.74-9.64-7.56-3.65-3.46-7.13-7.19-10.22-11.22-1.77-2.31-2.72-5.41-3.81-8.26-.2-.52.55-2.05,1.13-2.29,4.66-1.85,9.38-3.53,14.1-5.2,2.4-.85,4.81-2.02,7.27-2.27,4.61-.46,9.21-.82,13.82-1.55,6.25-.99,12.6-1.13,18.91-1.63,2.24-.18,4.48-.31,6.71-.5,2.53-.22,5.11-.92,7.56-.59,1.87.25,3.55,1.83,5.37,2.7,6.29,3.03,12.71,5.79,18.86,9.1,3.62,1.95,15.36,8.11,17.64,9.21,3.22,1.56,31.93,16.16,35.8,18.89,2.84,1.99,5.38,4.46,8.07,6.69,5.48,4.57,10.95,9.15,16.45,13.69,2.24,1.86,4.52,3.67,6.83,5.45,3.16,2.43,6.46,4.66,9.52,7.23,5.25,4.41,10.3,9.07,15.52,13.51,4.73,4.02,9.72,7.63,15.65,9.41,6.11,1.84,12.11,3.36,18.61.29,5.31-2.51,9.34-6.06,12.18-11.41.66-1.25,1.65-2.29,2.37-3.52.32-.55.67-1.6.43-1.92-1.52-2.03-3.05-4.09-4.86-5.8-2.76-2.62-5.78-4.94-8.63-7.46-2.29-2.02-4.46-4.18-6.76-6.19-3.19-2.79-6.43-5.52-9.7-8.21-2.93-2.41-5.95-4.72-8.88-7.14-.53-.44-.79-1.24-1.55-2.49,1.5.16,2.22.2,2.94.31,3.75.59,7.49,1.21,11.23,1.81,4.74.76,9.2,1.24,14.14-.87,6.59-2.82,11.19-7.32,14.21-13.87,1.09-2.37,1.42-5.16,1.91-7.79.47-2.51-.52-3.85-2.67-4.88-1.65-.79-3.29-1.8-4.59-3.1-2.29-2.28-2.27-2.78-.22-5.41,2.07-2.64.36-9.72-2.6-10.58-5.45-1.59-10.94-2.97-16.17-5.47-5.07-2.42-10.56-3.84-15.83-5.79-2.53-.93-4.96-2.16-7.5-3.06-4.03-1.43-8.16-2.58-12.16-4.1-.89-.34-1.58-1.58-2.05-2.59-.16-.35.64-1.79.96-1.78,3.26.07,5.84-1.29,8.41-3.5,2.9-2.49,5.38-5.33,6.74-8.88,1.01-2.64.88-5.74,1.52-8.57.97-4.28-1.4-6.39-4.63-7.08-2.74-.58-5.55-.85-8.33-1.16-10.69-1.21-21.4-2.25-32.07-3.59-10.76-1.34-21.45-3.15-32.21-4.41-13.38-1.57-26.83-2.6-40.2-4.22-11.36-1.38-22.65-3.26-33.97-4.94-.65-.1-1.3-.39-1.89-.7-3.58-1.88-7.14-3.79-10.71-5.68-5.46-2.89-10.86-5.89-16.4-8.62-4.25-2.09-8.64-3.91-13.02-5.69-3.89-1.58-7.84-3-11.79-4.41-4.51-1.61-9.06-3.12-13.59-4.69-1.7-.59-3.39-1.2-5.08-1.81-4.26-1.52-8.44-3.36-12.79-4.49-7.83-2.03-15.72-3.86-23.66-5.37-9.3-1.77-18.65-3.27-28.03-4.55-5.16-.71-10.46-.39-15.61-1.11-7.59-1.06-15.11-1.26-22.81-.87-5.18.26-9.86,1.91-14.69,3.22-4.12,1.11-8.02,3.21-12.1,4.53-6.34,2.05-12.76,3.83-19.15,5.72-.22.07-.42.19-.64.28-3.57,1.37-7.12,2.86-10.74,4.08-4,1.34-8.1,2.31-12.1,3.68-6.11,2.09-12.15,4.46-18.25,6.58-7.25,2.52-14.54,4.91-21.81,7.37-2.8.95-5.59,1.98-8.4,2.91-4.44,1.48-8.91,2.88-13.35,4.39-3.27,1.11-6.49,2.41-9.76,3.5-1.35.45-2.82.44-4.18.87-4.73,1.51-9.44,3.11-14.15,4.68-.5.17-.99.39-1.49.57-3.48,1.28-6.95,2.61-10.45,3.83-5.71,1.99-9.08,3.11-17.15,5.85-3.91,1.33-13.53,6.66-17.45,9.02C11.2,374.79,10.74,547.72,11.03,548.43c6.69-22.46,28.32-193.09,238.64-308.43,3.58-1.96,15.57-5.14,19.38-6.44ZM479.12,510.91c10.5-2.7,21.23-4.76,32.11-5.98-18.43,11.18-28.9,32.81-22.91,54.88,4.48,16.54,18.05,30.39,34.72,36,27.74,9.33,56.58-4.32,66.25-31.26,8.16-22.74-.42-44.86-17.46-57.27,10.71,1.93,21.41,4.56,31.96,7.72,13.72,18.16,16.87,40.91,8.61,62.56-11.09,29.08-39.94,46.97-71.43,46.97-8.44,0-17.07-1.29-25.6-3.99-24.81-7.86-44.29-26.84-50.83-49.53-5.15-17.87-2.14-36.43,8.46-52.27,1.85-2.76,3.91-5.37,6.11-7.84ZM629.12,656.81c-96.29,29.93-200.43,8.81-301.25-61.06.21-.42.48-.95.78-1.53,24.43-20.96,79.09-62.95,143.64-81.45-.92,1.21-1.81,2.45-2.66,3.72-11.28,16.85-14.48,36.61-8.99,55.65,6.91,23.98,27.41,44.01,53.5,52.28,8.94,2.83,18.09,4.24,27.14,4.24,11.84,0,23.5-2.41,34.24-7.19,19-8.44,33.44-23.52,40.66-42.46,8.11-21.27,5.85-43.55-6.09-62.05,58.28,18.66,111.49,52.4,138.09,70.9-8.89,8.71-51.61,48-119.07,68.96ZM768.92,346.23c4.33,3.83,8.61,7.72,12.95,11.53,2.46,2.16,4.98,4.24,7.5,6.32,2.28,1.88,4.63,3.67,6.91,5.56,2.01,1.67,1.83,4.61-.22,6.38-1.86,1.61-3.48,3.55-5.43,5.01-5.29,3.97-13.69,3.92-18.95.23-1.28-.9-2.86-1.31-4.24-2.06-4.42-2.42-8.46-5.3-12.14-9-4.19-4.21-9.1-7.6-13.66-11.4-2.43-2.03-4.75-4.22-7.19-6.24-2.98-2.47-6.06-4.83-9.07-7.26-2.65-2.14-5.26-4.35-7.93-6.48-5.39-4.3-10.81-8.54-16.2-12.84-.76-.61-5.89-3.79-7.73-4.76-5.41-2.86-10.75-5.86-16.17-8.69-1.93-1.01-12.15-5.87-15.25-7.46-.85-.44-8.7-5.91-9.96-7.33,3.71.94,6.89,1.74,10.07,2.55,3.45.87,6.86,1.89,10.34,2.6,6.46,1.32,13.03,2.11,19.4,3.78,5.28,1.38,10.32,3.74,15.5,5.56,2.13.75,4.32,1.41,6.54,1.77,5.21.84,9.86,3.19,14.68,5.22,3.44,1.45,7.25,1.93,10.84,3.05,1.43.44,2.81,1.27,4.03,2.2,3.2,2.42,6.33,4.94,9.41,7.53,2.08,1.75,4,3.73,6.04,5.55,3.29,2.93,6.63,5.79,9.93,8.71ZM793.92,294.71c3.41,1.54,2.68,4.84.65,7.37-.25.31-1.02.44-1.39.27-1.51-.69-2.93-1.61-4.45-2.28-1.85-.81-55.82-25.37-57.36-25.95-1.7-.64-3.47-1.07-5.17-1.69-.62-.23-1.12-.77-1.68-1.17.1-.31.19-.62.29-.94,2.76.44,5.62.55,8.25,1.43,2.88.96,57.71,21.55,60.85,22.96ZM635.4,229.92c1.99.09,3.99,0,5.95.29,7.05,1.02,14.06,2.34,21.13,3.22,13.38,1.67,26.79,3.08,40.19,4.64,14.89,1.73,29.78,3.52,44.67,5.26,1.8.21,3.62.23,5.42.43,3.63.41,5.51,3.12,3.9,7-1.72,4.15-4.38,7.68-8.24,9.88-.75.43-1.7.49-2.56.65-3.33.62-6.69,1.78-9.99,1.69-5.19-.14-10.38-.9-15.5-1.8-6.32-1.11-12.23-3.68-18.21-6.08-3.75-1.5-7.91-1.87-11.81-3.03-4.11-1.23-8.1-2.88-12.2-4.19-3.45-1.11-7-1.89-10.44-3.01-3.06-1-6.04-2.28-9.07-3.41-2.88-1.07-5.85-1.9-8.62-3.21-3.12-1.47-6.03-3.43-9.1-5.02-1.83-.95-3.8-1.6-5.71-2.38.07-.31.13-.62.19-.93Z"/>
  <path d="M918.96,629.22c-56.22,9.71-245.05,146.71-298.24,184.03-4.28,2.51-8.66,4.86-12.88,7.47-5.9,3.64-11.63,7.57-17.54,11.2-4.9,3.01-10,5.73-14.95,8.67-.18.11-.34.15-.5.22-.46-.23-.92-.57-1.38-1.15-1.56-1.98-3.3-3.86-5.17-5.54-20.3-18.24-41.52-35.24-65.34-48.8-10.02-5.7-20.35-10.64-30.97-15.06-3.65-1.52-7.38-3.27-10.46-5.68-13.79-10.78-28.07-20.82-42.87-30.15-6.91-4.36-13.74-8.86-21.53-11.6-1.31-.46-2.6-.7-3.9-.8-3.28-.69-6.48-.29-9.27,1.65-4.22,2.94-7.7,6.37-9.02,11.87-1.31,5.43-1.67,10.86-.55,16.11.85,3.97,3.31,7.61,5.12,11.36,3.55,7.39,9.87,12.32,15.82,17.54,1.93,1.69,4.13,3.08,6.22,4.59,1.03.74,2.11,1.4,3.13,2.16.96.71,1.81,1.61,2.82,2.24,3.35,2.09,6.74,4.11,10.13,6.14,2.56,1.53,5.22,2.92,7.65,4.62,2.9,2.03,5.53,4.45,8.42,6.5,4.76,3.39,8.49,7.63,11.4,12.66,1.92,3.32.41,6.39-3.28,7.37-4.26,1.13-32.36,12.64-64.41,12.89-.56.07-1.13.13-1.71.19-1.9-.09-3.8-.4-5.71-1.22-10.2-4.32-20.57-8.24-30.9-12.27-10.27-4-20.58-7.86-30.82-11.93-4.98-1.98-10.15-3.76-14.65-6.57-13.92-8.7-27.57-17.83-41.3-26.85-12.27-8.06-24.49-16.22-36.77-24.28-3.63-2.38-7.53-4.1-11.84-5.08-1.68-.38-3.33-.55-4.97-.63-3.56-.42-7.15-.3-10.81.8-4.02,1.21-7.76,2.88-10.54,5.93-2.45,2.69-4.27,5.96-6.38,8.97-1.62,2.3-1.51,5.55.65,7.24,2.63,2.06,9.39,6.26,9.89,6.64,2.98,2.3,31.56,22.88,32.6,23.74,1.24.82,3.31,1.9,1.96,1.93-1.41-.29-2.81-.58-4.19-.94-2.99-.78-5.98-1.32-8.97-1.52-5.53-.75-9.81-.34-15.34,1.63-3.11,1.11-6.27,2.39-8.47,4.28-5.09,4.34-9.29,9.61-9.75,16.92-.3,4.91,1.08,7.12,5.97,8.33.55.14,1.15.15,1.67.35,1.8.71,2.57,1.81,2.07,3.95-.61,2.59-.96,5.28-1.01,7.94-.04,2.07.99,4.13,13.76,7.4,2.93.86,5.89,1.66,8.83,2.47,3.66,1.01,7.33,1.98,10.99,3.01,5.12,1.44,25.01,7.47,29.72,9.31.34.13.6.45,1.47,1.13-1.39.59-2.32,1.02-3.29,1.37-1.35.49-2.9.66-4.05,1.44-2.14,1.45-4.14,3.14-6.03,4.92-4.77,4.5-7.15,14.14-3.89,20.75.47.96,1.81,2.03,2.82,2.1.4.03.8.04,1.2.06.75.26,1.66.39,2.84.34.93-.04,1.86.14,2.79.18,13.23.6,26.49.8,39.68,1.89,6.95.57,13.9,1,20.86,1.4,2.22.17,4.43.37,6.65.51,2.76.17,5.53.25,8.3.31,6.93.36,13.86.71,20.79,1.14,17.41,1.06,34.79,2.69,52.15,4.31.84.08,1.68.22,2.52.33,3.59.61,7.16,1.41,10.56,2.58,6.01,2.06,11.52,5.56,17.52,7.65,4.87,1.7,9.8,3.11,14.56,5.2,5.09,2.23,29.42,9.32,35.19,10.92,3.28.91,6.54,1.93,9.87,2.59,2.14.42,4.27.83,6.41,1.26,2.23.47,4.47.91,6.72,1.32,5.15.99,10.31,1.93,15.49,2.71,10.16,1.53,20.39,2.63,30.6,3.76.91.12,1.81.23,2.72.35.92.12,1.86.18,2.79.19,10.64.03,21.28.12,31.91.04,4.77-.04,9.64.1,14.29-.77,5.85-1.1,11.61-2.88,17.23-4.85,9.46-3.32,18.77-7.08,28.16-10.58,15.13-5.62,30.33-11.06,45.39-16.83,10.8-4.14,162.31-61.27,179.17-68.66,27.63-12.09,54.41-25.73,80.41-40.74,3.93-2,7.84-4.03,11.73-6.08,39.85-17.79,74.68-33.88,110.65-81.06,5.13-4.7,8.56-9.08,10.46-14.55,8.67-21.85-44.59-94.92-149.11-76.87Z"/>
  <path d="M759.86,627.32c-1.53-.89-3.19-1.34-4.97-1.34-1.35-.05-2.62.23-3.79.85-1.22.4-2.27,1.08-3.17,2.04-.96.89-1.64,1.95-2.03,3.17-.62,1.17-.9,2.43-.85,3.79.11.87.23,1.74.35,2.62.47,1.67,1.31,3.12,2.53,4.34l1.99,1.54c1.53.89,3.19,1.34,4.97,1.34,1.35.05,2.62-.23,3.79-.85,1.22-.4,2.27-1.08,3.17-2.04.96-.89,1.64-1.95,2.03-3.17.62-1.17.9-2.43.85-3.79-.11-.87-.23-1.74-.35-2.61-.47-1.67-1.31-3.11-2.53-4.34-.66-.51-1.33-1.03-1.99-1.54Z"/>
  <path d="M327.57,634.59c-1.53-.89-3.19-1.34-4.97-1.34-1.35-.05-2.62.23-3.79.85-1.22.4-2.27,1.08-3.17,2.04-.96.89-1.64,1.95-2.03,3.17-.62,1.17-.9,2.43-.85,3.79.11.87.23,1.74.35,2.62.47,1.67,1.31,3.11,2.53,4.34l1.99,1.54c1.53.89,3.19,1.34,4.97,1.34,1.35.05,2.62-.23,3.79-.85,1.22-.4,2.27-1.08,3.17-2.04.96-.89,1.64-1.95,2.03-3.17.62-1.17.9-2.43.85-3.79-.11-.87-.23-1.74-.35-2.61-.47-1.67-1.31-3.12-2.53-4.34-.66-.51-1.33-1.03-1.99-1.54Z"/>
  <path d="M700.74,672.04c-1.8-1.04-3.73-1.57-5.81-1.57-1.59-.06-3.07.27-4.44.99-1.43.46-2.66,1.26-3.71,2.38-1.12,1.04-1.91,2.28-2.38,3.71-.72,1.37-1.05,2.85-.99,4.43.14,1.02.27,2.04.41,3.06.55,1.95,1.53,3.65,2.96,5.08l2.33,1.8c1.8,1.04,3.73,1.56,5.81,1.57,1.58.06,3.06-.27,4.44-.99,1.43-.46,2.66-1.26,3.7-2.38,1.12-1.04,1.92-2.28,2.38-3.71.72-1.37,1.05-2.85.99-4.44-.14-1.02-.27-2.04-.41-3.06-.55-1.95-1.53-3.65-2.96-5.08l-2.33-1.8Z"/>
  <path d="M386.45,667.57c-1.8-1.04-3.73-1.57-5.81-1.57-1.59-.06-3.07.27-4.44.99-1.43.46-2.66,1.26-3.71,2.38-1.12,1.04-1.91,2.28-2.38,3.71-.72,1.37-1.05,2.85-.99,4.43.14,1.02.27,2.04.41,3.06.55,1.95,1.53,3.65,2.96,5.08l2.33,1.8c1.8,1.04,3.73,1.56,5.81,1.57,1.58.06,3.06-.27,4.44-.99,1.43-.46,2.66-1.26,3.7-2.38,1.12-1.04,1.92-2.28,2.38-3.71.72-1.37,1.05-2.85.99-4.44l-.41-3.06c-.55-1.95-1.53-3.65-2.96-5.08l-2.33-1.8Z"/>
  <path d="M625.73,693.04c-1.75-1.01-3.64-1.52-5.66-1.53-1.54-.06-2.98.27-4.32.97-1.39.45-2.59,1.22-3.61,2.32-1.09,1.01-1.87,2.22-2.32,3.61-.7,1.33-1.02,2.77-.97,4.32.13.99.27,1.99.4,2.98.53,1.9,1.5,3.55,2.88,4.95.76.58,1.51,1.17,2.27,1.75,1.75,1.01,3.64,1.52,5.66,1.53,1.54.06,2.98-.26,4.32-.97,1.39-.45,2.59-1.22,3.61-2.32,1.09-1.02,1.87-2.22,2.32-3.61.7-1.33,1.02-2.77.97-4.32-.13-.99-.27-1.99-.4-2.98-.53-1.9-1.49-3.55-2.88-4.95l-2.27-1.75Z"/>
  <path d="M456.47,695.04c-1.75-1.01-3.64-1.52-5.66-1.53-1.54-.06-2.98.27-4.32.97-1.39.45-2.59,1.22-3.61,2.32-1.09,1.01-1.87,2.22-2.32,3.61-.7,1.33-1.02,2.77-.97,4.32l.4,2.98c.53,1.9,1.49,3.55,2.88,4.95.76.58,1.51,1.17,2.27,1.75,1.75,1.01,3.63,1.52,5.66,1.53,1.54.06,2.98-.26,4.32-.97,1.39-.45,2.59-1.22,3.61-2.32,1.09-1.02,1.87-2.22,2.32-3.61.7-1.33,1.02-2.77.97-4.32-.13-.99-.27-1.99-.4-2.98-.53-1.9-1.5-3.55-2.88-4.95l-2.27-1.75Z"/>
  <path d="M542.01,701.35c-1.77-1.03-3.67-1.54-5.72-1.55-1.56-.06-3.02.27-4.37.98-1.4.46-2.62,1.24-3.65,2.34-1.11,1.03-1.88,2.24-2.34,3.65-.71,1.35-1.03,2.81-.98,4.37.13,1,.27,2.01.4,3.01.54,1.92,1.51,3.59,2.92,5,.77.59,1.53,1.18,2.29,1.77,1.77,1.02,3.67,1.54,5.72,1.55,1.56.06,3.01-.27,4.37-.98,1.41-.46,2.62-1.24,3.65-2.35,1.11-1.02,1.89-2.24,2.34-3.65.71-1.35,1.04-2.8.98-4.36-.14-1-.27-2.01-.41-3.01-.54-1.92-1.51-3.59-2.92-5l-2.29-1.77Z"/>
  <path d="M754.66,476.5c-.75-.83-2.03-.9-2.86-.15l-49.77,44.74c-.83.75-.9,2.03-.15,2.86.4.45.95.67,1.51.67.48,0,.97-.17,1.35-.52l49.77-44.74c.83-.75.9-2.03.15-2.86Z"/>
  <path d="M306.26,518.88c-4.78,0-4.79,7.44,0,7.44s4.79-7.44,0-7.44Z"/>
  <path d="M321.92,531.06c-4.22,0-4.23,6.56,0,6.56s4.23-6.56,0-6.56Z"/>
  <path d="M339.69,548.35c.52-.52.91-1.37.88-2.12-.07-1.63-1.32-3-3-3-.77,0-1.58.33-2.12.88-.52.52-.91,1.37-.88,2.12.07,1.63,1.32,3,3,3,.77,0,1.58-.34,2.12-.88Z"/>
  <path d="M361.83,457.85c.11-.03.21-.06.32-.09,3.88-1.18,3.89-6.7,0-7.88-.11-.03-.21-.07-.32-.1-6.73-2.04-6.77,10.13,0,8.08Z"/>
  <path d="M377.28,470.25c-5.47,0-5.48,8.51,0,8.51s5.48-8.51,0-8.51Z"/>
  <path d="M393.99,494.57c.67-.67,1.17-1.76,1.13-2.73-.05-.99-.37-2.03-1.13-2.72-.75-.69-1.68-1.13-2.72-1.13-.99,0-2.03.43-2.73,1.13-.67.67-1.17,1.76-1.13,2.72.05,1,.37,2.03,1.13,2.73.75.69,1.68,1.13,2.73,1.13.98,0,2.03-.43,2.72-1.13Z"/>
  <path d="M444.54,401.81c-1.01,0-2.07.44-2.79,1.16-.68.68-1.2,1.81-1.16,2.79.05,1.02.38,2.08,1.16,2.79.77.71,1.72,1.16,2.79,1.16,1.01,0,2.07-.44,2.79-1.16.68-.68,1.2-1.81,1.16-2.79-.05-1.02-.38-2.08-1.16-2.79-.77-.71-1.72-1.16-2.79-1.16Z"/>
  <path d="M451.66,430.66c5.47,0,5.48-8.51,0-8.51s-5.48,8.51,0,8.51Z"/>
  <path d="M461.65,449.26c.53-.53.93-1.39.89-2.15-.08-1.65-1.34-3.05-3.05-3.05-.78,0-1.6.34-2.16.89-.53.53-.93,1.4-.89,2.16.08,1.65,1.34,3.05,3.05,3.05.78,0,1.6-.34,2.16-.89Z"/>
  <path d="M536.73,380.12c-.96,0-1.97.42-2.65,1.1-.65.65-1.14,1.72-1.1,2.65.04.97.36,1.98,1.1,2.65.73.67,1.64,1.1,2.65,1.1.96,0,1.97-.42,2.65-1.1.65-.65,1.14-1.72,1.1-2.65-.04-.97-.36-1.98-1.1-2.65-.73-.67-1.64-1.1-2.65-1.1Z"/>
  <path d="M538.9,404.45c-5.95,0-5.96,9.24,0,9.24s5.96-9.24,0-9.24Z"/>
  <path d="M537.29,434.24c.05,1.18.96,2.18,2.18,2.18,1.14,0,2.23-1,2.18-2.18-.05-1.18-.96-2.18-2.18-2.18-1.14,0-2.23,1-2.18,2.18Z"/>
  <path d="M635.65,407.84c5.61,0,5.61-8.71,0-8.71s-5.61,8.71,0,8.71Z"/>
  <path d="M628.94,429.96c.87,0,1.79-.38,2.41-1,.59-.59,1.03-1.56,1-2.41-.09-1.85-1.5-3.41-3.41-3.41-.87,0-1.79.38-2.41,1-.59.59-1.03,1.56-1,2.41.09,1.85,1.5,3.41,3.41,3.41Z"/>
  <path d="M622.23,445.81c-5.26,0-5.27,8.17,0,8.17s5.27-8.17,0-8.17Z"/>
  <path d="M720.62,451.54c.81-.81,1.43-2.15,1.37-3.32-.06-1.21-.45-2.47-1.37-3.31-.92-.84-2.05-1.37-3.31-1.37-1.2,0-2.47.52-3.32,1.37-.81.81-1.43,2.15-1.37,3.31.06,1.21.45,2.47,1.37,3.32.92.84,2.05,1.37,3.32,1.37,1.2,0,2.46-.52,3.31-1.37Z"/>
  <path d="M705,469.76c3.97,0,3.97-6.16,0-6.16s-3.97,6.16,0,6.16Z"/>
  <path d="M689.68,483.36c-.58.58-1.01,1.52-.97,2.35.04.86.32,1.75.97,2.34.65.6,1.45.97,2.34.97s1.74-.37,2.35-.97c.58-.58,1.01-1.52.97-2.34-.04-.86-.32-1.75-.97-2.35-.65-.6-1.45-.97-2.35-.97-.85,0-1.74.37-2.34.97Z"/>
  <path d="M777.19,505.87c-.67.67-1.18,1.78-1.14,2.75.05,1,.37,2.05,1.14,2.75.76.7,1.69,1.14,2.75,1.14s2.05-.43,2.75-1.14c.67-.67,1.18-1.78,1.14-2.75-.05-1-.38-2.05-1.14-2.75-.76-.7-1.69-1.14-2.75-1.14-.99,0-2.04.44-2.75,1.14Z"/>
  <path d="M760.24,519.69c-.71.71-1.25,1.89-1.21,2.91.05,1.07.4,2.17,1.21,2.92.81.74,1.8,1.2,2.92,1.2,1.05,0,2.17-.46,2.91-1.2.71-.72,1.25-1.89,1.21-2.92-.05-1.06-.4-2.17-1.21-2.91-.8-.74-1.8-1.21-2.91-1.21-1.06,0-2.17.46-2.92,1.21Z"/>
  <path d="M743.37,535.68c-.6.6-1.06,1.59-1.02,2.45.09,1.88,1.52,3.47,3.47,3.47.89,0,1.83-.39,2.45-1.01.6-.6,1.06-1.59,1.02-2.45-.09-1.88-1.52-3.47-3.47-3.47-.89,0-1.83.39-2.45,1.02Z"/>
</svg>