<?xml version="1.0" encoding="UTF-8"?>
<svg id="Layer_1" xmlns="http://www.w3.org/2000/svg" version="1.1" viewBox="0 0 24 24">
  <!-- Generator: Adobe Illustrator 29.1.0, SVG Export Plug-In . SVG Version: 2.1.0 Build 142)  -->
  <path d="M5.98,4.72c.14-.05.28-.1.42-.15.11-.04.22-.08.33-.12,0,0,.01,0,.02,0,.09-.03.17-.05.26-.08,0,0,0,0,0,0,.08-.03.17-.06.25-.09.08-.03.16-.05.24-.07.09-.03.17-.06.25-.09.1-.03.2-.07.31-.1.08-.03.16-.05.24-.08.05-.02.09-.04.14-.05.09-.03.18-.06.27-.08.05-.02.1-.03.15-.05.08-.03.17-.06.25-.09,0,0,0,0,0,0,.09-.03.17-.05.26-.08.13-.06.27-.09.41-.08.06,0,.12,0,.18.01.12,0,.25-.01.37,0,.34.05.69.11,1.03.16.06,0,.11.03.17.05.07.02.13.06.2.07.17.04.34.1.5.16.05.02.1.03.14.05.07.03.14.07.22.1.14.06.28.12.42.18.06.03.12.06.18.09.04.02.08.03.12.05.11.06.21.12.32.17.01,0,.02,0,.03.01.08.03.16.07.23.1.02.01.04.02.07.03.06.02.12.04.18.07.03.01.32.15.44.2.12.05,3.12,1.42,3.2,1.45.07.03.08.07.03.14-.05.07-.08.15-.17.19-.04.02-.07.04-.11.05-.02,0-.05.01-.07.01-.09,0-.17.02-.25,0-.12-.03-.24-.09-.36-.14-.05-.02-.1-.06-.15-.08-.1-.04-.21-.07-.31-.11-.07-.02-.14-.06-.21-.07-.19-.03-.36-.13-.54-.17-.11-.02-.21-.08-.31-.1-.3-.07-.61-.13-.91-.19-.18-.04-.36-.08-.54-.11-.11-.02-.22-.01-.33,0-.16.01-.32.04-.48.06,0,0,0,0,0,0-.14,0-.27.02-.41.05-.06.02-.13.04-.19.06,0,0-.01,0-.02,0-.09.03-.18.07-.27.09-.05.02-.09.08-.08.14.04.14.12.26.2.38.09.13.21.21.33.3.1.09.22.16.33.25.1.08.19.17.28.27.07.07.13.15.18.24.06.1.09.22.11.35,0,.02,0,.03,0,.05,0,.11-.05.2-.12.28-.05.06-.15.09-.2.06-.04-.02-.08-.04-.12-.07l.06-.25s0-.05-.03-.05c-.02,0-.05,0-.05.03l-.06.22c-.09-.06-.18-.13-.26-.2-.15-.12-.29-.25-.43-.37-.05-.04-.1-.09-.15-.13-.06-.06-.12-.11-.18-.17-.06-.05-.13-.1-.19-.14-.1-.06-.21-.11-.32-.17-.09-.05-.18-.12-.26-.18-.03-.02-.06-.03-.09-.05-.07-.05-.14-.11-.21-.16-.11-.08-.22-.16-.32-.25-.12-.11-.24-.23-.35-.35-.11-.12-.23-.24-.34-.36-.05-.05-.09-.1-.13-.16-.03-.05-.07-.1-.09-.16-.02-.09-.02-.18-.02-.27,0-.15.04-.29.11-.42.03-.05.02-.1-.03-.15-.05.06-.13.09-.14.19-.01.09-.03.18-.05.27-.03.14-.03.27.02.41.02.06,0,.12-.07.15-.02,0-.04.02-.06.03-.1.06-.2.12-.3.18-.09.05-.18.09-.26.14-.15.08-.29.17-.43.25-.08.05-.17.09-.25.14-.1.06-.19.12-.29.18-.11.06-.22.13-.34.19-.04.02-.08.05-.12.07-.06.03-.13.06-.19.1-.1.06-.19.12-.29.17-.05.03-.11.06-.17.09-.05.03-.11.07-.16.1-.06.03-.12.06-.17.1-.03.02-.06.03-.08.06-.01.01-.02.04-.01.06,0,.02.02.04.06.04.05,0,.09-.03.13-.05.13-.08.27-.15.4-.23.11-.06.22-.13.34-.19.12-.07.24-.14.36-.21.13-.08.26-.16.4-.23.05-.03.09-.06.14-.08.05-.03.1-.06.16-.09.06-.03.12-.07.18-.11.1-.05.19-.1.29-.16.13-.07.25-.15.38-.23.16-.09.32-.18.48-.27.04.04.07.08.11.12.11.12.22.24.33.36.04.04.08.09.12.13.05.05.1.11.16.16.06.05.12.1.18.15.06.05.12.11.18.16.12.09.24.17.36.26.03.02.05.05.08.07.04.03.09.05.13.08.07.05.16.08.22.14.03.03.09.03.13.06.11.07.21.14.31.22.1.08.18.18.28.26.1.09.21.17.31.25,0,0,.01.01.02.02.03.03.07.06.1.08.01,0,.02.02.04.03.07.06.14.11.22.17,0,0,.02.01.03.02l-.27,1.08s0,.04.02.05c-.31-.06-.62-.08-.93-.07-.19,0-.37.02-.55.05,0,0,0,0,0-.01l-.36-1.44s-.03-.04-.05-.03c-.02,0-.04.03-.03.05l.36,1.44s0,0,0,0c-.34.05-.65.14-.94.26-.23.09-.45.2-.65.31l-.78-1.24s-.04-.03-.06-.01c-.02.01-.03.04-.01.06l.78,1.24c-.44.26-.81.58-1.12.89,0,0,0,0,0-.01l-1.11-.99s-.05-.02-.06,0c-.02.02-.02.05,0,.06l1.11.99s0,0,0,0c-.45.47-.76.93-.94,1.24l-1.29-.72s-.05,0-.06.02c-.01.02,0,.05.02.06l1.29.72c-.04.07-.07.13-.1.18,0,0,0,0,0,0-.03.05-.04.08-.04.08,0,.02,0,.04.01.06,1.27.88,2.55,1.43,3.81,1.62.34.05.68.08,1.01.08.67,0,1.33-.1,1.98-.3,1.68-.52,2.68-1.55,2.72-1.59,0,0,0,0,0,0,0,0,0-.01,0-.02,0,0,0-.02,0-.02,0,0,0,0,0,0,0,0-.03-.05-.08-.13l1.31-.73s.03-.04.02-.06c-.01-.02-.04-.03-.06-.02l-1.31.73c-.1-.15-.26-.36-.47-.61-.19-.22-.42-.47-.69-.71-.32-.29-.65-.54-1-.75-.02,0-.03-.02-.05-.03,0,0,.01,0,.02,0,.01,0,.03,0,.04-.02l.79-1.26s0-.05-.01-.06c-.02-.01-.05,0-.06.01l-.79,1.26s0,.05.01.06c-.16-.1-.33-.18-.5-.26-.37-.17-.75-.29-1.13-.36.02,0,.03-.02.04-.03l.26-1.05s0,0,.01,0c.16.11.29.06.3.05.05-.04.11-.07.16-.13.03-.04.06-.08.07-.13.08-.33,0-.47,0-.48-.02-.1-.06-.18-.12-.26-.06-.08-.12-.17-.19-.24-.11-.11-.23-.21-.35-.31-.05-.04-.11-.08-.16-.12-.07-.06-.15-.11-.21-.17-.08-.08-.16-.16-.23-.25-.04-.05-.06-.12-.08-.18,0-.01.01-.05.03-.05.1-.04.21-.08.31-.12.05-.02.11-.04.16-.05.1-.01.2-.02.31-.03.14-.02.28-.03.42-.04.05,0,.1,0,.15-.01.06,0,.11-.02.17-.01.04,0,.08.04.12.06.14.07.28.13.42.2.08.04.34.18.39.2.07.03.71.36.8.42.06.04.12.1.18.15.12.1.24.2.37.3.05.04.1.08.15.12.07.05.14.1.21.16.12.1.23.2.34.3.11.09.22.17.35.21.14.04.27.07.41,0,.12-.06.21-.13.27-.25.01-.03.04-.05.05-.08,0-.01.01-.04,0-.04-.03-.05-.07-.09-.11-.13-.06-.06-.13-.11-.19-.17-.05-.04-.1-.09-.15-.14-.07-.06-.14-.12-.22-.18-.07-.05-.13-.1-.2-.16-.01,0-.02-.03-.03-.06.03,0,.05,0,.07,0,.08.01.17.03.25.04.11.02.2.03.31-.02.15-.06.25-.16.32-.31.02-.05.03-.11.04-.17.01-.06-.01-.09-.06-.11-.04-.02-.07-.04-.1-.07-.05-.05-.05-.06,0-.12.05-.06,0-.22-.06-.24-.12-.04-.24-.07-.36-.12-.11-.05-.23-.09-.35-.13-.06-.02-.11-.05-.17-.07-.09-.03-.18-.06-.27-.09-.02,0-.04-.04-.05-.06,0,0,.01-.04.02-.04.07,0,.13-.03.19-.08.06-.06.12-.12.15-.2.02-.06.02-.13.03-.19.02-.1-.03-.14-.1-.16-.06-.01-.12-.02-.19-.03-.24-.03-.48-.05-.71-.08-.24-.03-.48-.07-.72-.1-.3-.03-.6-.06-.89-.09-.25-.03-.5-.07-.75-.11-.01,0-.03,0-.04-.02-.08-.04-.16-.08-.24-.13-.12-.06-.24-.13-.36-.19-.09-.05-.19-.09-.29-.13-.09-.04-.17-.07-.26-.1-.1-.04-.2-.07-.3-.1-.04-.01-.08-.03-.11-.04-.09-.03-.19-.07-.28-.1-.17-.05-.35-.09-.53-.12-.21-.04-.41-.07-.62-.1-.11-.02-.23,0-.35-.02-.17-.02-.34-.03-.51-.02-.12,0-.22.04-.33.07-.09.02-.18.07-.27.1-.14.05-.28.08-.43.13,0,0,0,0-.01,0-.08.03-.16.06-.24.09-.09.03-.18.05-.27.08-.14.05-.27.1-.41.15-.16.06-.32.11-.48.16-.06.02-.12.04-.19.06-.1.03-.2.06-.3.1-.07.02-.14.05-.22.08-.03.01-.06,0-.09.02-.11.03-.21.07-.31.1-.01,0-.02,0-.03.01-.08.03-.15.06-.23.09-.13.04-.2.07-.38.13-.09.03-.3.15-.39.2C.26,7.86.25,11.7.25,11.72c.15-.5.63-4.29,5.3-6.85.08-.04.35-.11.43-.14ZM10.65,10.88c.23-.06.47-.11.71-.13-.41.25-.64.73-.51,1.22.1.37.4.67.77.8.62.21,1.26-.1,1.47-.69.18-.5,0-1-.39-1.27.24.04.48.1.71.17.3.4.37.91.19,1.39-.25.65-.89,1.04-1.59,1.04-.19,0-.38-.03-.57-.09-.55-.17-.98-.6-1.13-1.1-.11-.4-.05-.81.19-1.16.04-.06.09-.12.14-.17ZM11.51,11.52c-.02-.06-.04-.12-.06-.18,0,0,0,0,.01,0,.05.04.1.08.15.12.03.03.05.03.09,0,.05-.04.11-.08.16-.12,0,0,0,0,.01,0-.02.06-.04.13-.06.19-.02.04,0,.06.03.08.06.04.11.08.16.12,0,0,0,.01,0,.02-.05,0-.11,0-.16,0-.1,0-.08-.02-.12.09-.02.05-.03.1-.05.16,0,0-.01,0-.02,0-.01-.03-.02-.07-.03-.1q-.05-.14-.19-.14s-.07,0-.11,0c0,0,0-.01,0-.02.05-.04.1-.08.15-.11.05-.03.05-.06.03-.1ZM12,12.13c.12-.05.35-.2.38-.51.04-.36-.22-.56-.35-.63-.02,0-.01-.04,0-.04.21,0,.78.05.78.65,0,.54-.59.57-.82.56-.02,0-.03-.03,0-.04ZM13.98,14.12c-2.14.66-4.45.2-6.69-1.36,0,0,.01-.02.02-.03.54-.47,1.76-1.4,3.19-1.81-.02.03-.04.05-.06.08-.25.37-.32.81-.2,1.24.15.53.61.98,1.19,1.16.2.06.4.09.6.09.26,0,.52-.05.76-.16.42-.19.74-.52.9-.94.18-.47.13-.97-.14-1.38,1.29.41,2.48,1.16,3.07,1.57-.2.19-1.15,1.07-2.64,1.53ZM17.08,7.23c.1.09.19.17.29.26.05.05.11.09.17.14.05.04.1.08.15.12.04.04.04.1,0,.14-.04.04-.08.08-.12.11-.12.09-.3.09-.42,0-.03-.02-.06-.03-.09-.05-.1-.05-.19-.12-.27-.2-.09-.09-.2-.17-.3-.25-.05-.05-.11-.09-.16-.14-.07-.05-.13-.11-.2-.16-.06-.05-.12-.1-.18-.14-.12-.1-.24-.19-.36-.29-.02-.01-.13-.08-.17-.11-.12-.06-.24-.13-.36-.19-.04-.02-.27-.13-.34-.17-.02,0-.19-.13-.22-.16.08.02.15.04.22.06.08.02.15.04.23.06.14.03.29.05.43.08.12.03.23.08.34.12.05.02.1.03.15.04.12.02.22.07.33.12.08.03.16.04.24.07.03,0,.06.03.09.05.07.05.14.11.21.17.05.04.09.08.13.12.07.07.15.13.22.19ZM17.64,6.08c.08.03.06.11.01.16,0,0-.02,0-.03,0-.03-.02-.07-.04-.1-.05-.04-.02-1.24-.56-1.27-.58-.04-.01-.08-.02-.11-.04-.01,0-.02-.02-.04-.03,0,0,0-.01,0-.02.06,0,.12.01.18.03.06.02,1.28.48,1.35.51ZM14.12,4.64s.09,0,.13,0c.16.02.31.05.47.07.3.04.6.07.89.1.33.04.66.08.99.12.04,0,.08,0,.12,0,.08,0,.12.07.09.16-.04.09-.1.17-.18.22-.02,0-.04.01-.06.01-.07.01-.15.04-.22.04-.12,0-.23-.02-.34-.04-.14-.02-.27-.08-.4-.13-.08-.03-.18-.04-.26-.07-.09-.03-.18-.06-.27-.09-.08-.02-.16-.04-.23-.07-.07-.02-.13-.05-.2-.08-.06-.02-.13-.04-.19-.07-.07-.03-.13-.08-.2-.11-.04-.02-.08-.04-.13-.05,0,0,0-.01,0-.02Z"/>
  <path d="M20.42,13.51c-1.25.22-5.44,3.26-6.62,4.09-.1.06-.19.11-.29.17-.13.08-.26.17-.39.25-.11.07-.22.13-.33.19,0,0,0,0-.01,0-.01,0-.02-.01-.03-.03-.03-.04-.07-.09-.11-.12-.45-.4-.92-.78-1.45-1.08-.22-.13-.45-.24-.69-.33-.08-.03-.16-.07-.23-.13-.31-.24-.62-.46-.95-.67-.15-.1-.31-.2-.48-.26-.03-.01-.06-.02-.09-.02-.07-.02-.14,0-.21.04-.09.07-.17.14-.2.26-.03.12-.04.24-.01.36.02.09.07.17.11.25.08.16.22.27.35.39.04.04.09.07.14.1.02.02.05.03.07.05.02.02.04.04.06.05.07.05.15.09.22.14.06.03.12.06.17.1.06.05.12.1.19.14.11.08.19.17.25.28.04.07,0,.14-.07.16-.09.03-.72.28-1.43.29-.01,0-.03,0-.04,0-.04,0-.08,0-.13-.03-.23-.1-.46-.18-.69-.27-.23-.09-.46-.17-.68-.26-.11-.04-.23-.08-.33-.15-.31-.19-.61-.4-.92-.6-.27-.18-.54-.36-.82-.54-.08-.05-.17-.09-.26-.11-.04,0-.07-.01-.11-.01-.08,0-.16,0-.24.02-.09.03-.17.06-.23.13-.05.06-.09.13-.14.2-.04.05-.03.12.01.16.06.05.21.14.22.15.07.05.7.51.72.53.03.02.07.04.04.04-.03,0-.06-.01-.09-.02-.07-.02-.13-.03-.2-.03-.12-.02-.22,0-.34.04-.07.02-.14.05-.19.09-.11.1-.21.21-.22.38,0,.11.02.16.13.18.01,0,.03,0,.04,0,.04.02.06.04.05.09-.01.06-.02.12-.02.18,0,.05.02.09.31.16.07.02.13.04.2.05.08.02.16.04.24.07.11.03.56.17.66.21,0,0,.01.01.03.03-.03.01-.05.02-.07.03-.03.01-.06.01-.09.03-.05.03-.09.07-.13.11-.11.1-.16.31-.09.46.01.02.04.04.06.05,0,0,.02,0,.03,0,.02,0,.04,0,.06,0,.02,0,.04,0,.06,0,.29.01.59.02.88.04.15.01.31.02.46.03.05,0,.1,0,.15.01.06,0,.12,0,.18,0,.15,0,.31.02.46.03.39.02.77.06,1.16.1.02,0,.04,0,.06,0,.08.01.16.03.23.06.13.05.26.12.39.17.11.04.22.07.32.12.11.05.65.21.78.24.07.02.15.04.22.06.05,0,.09.02.14.03.05.01.1.02.15.03.11.02.23.04.34.06.23.03.45.06.68.08.02,0,.04,0,.06,0,.02,0,.04,0,.06,0,.24,0,.47,0,.71,0,.11,0,.21,0,.32-.02.13-.02.26-.06.38-.11.21-.07.42-.16.63-.23.34-.12.67-.25,1.01-.37.24-.09,3.6-1.36,3.98-1.52.61-.27,1.21-.57,1.79-.9.09-.04.17-.09.26-.14.89-.4,1.66-.75,2.46-1.8.11-.1.19-.2.23-.32.19-.49-.99-2.11-3.31-1.71Z"/>
  <path d="M16.88,13.47s-.07-.03-.11-.03c-.03,0-.06,0-.08.02-.03,0-.05.02-.07.05-.02.02-.04.04-.05.07-.01.03-.02.05-.02.08,0,.02,0,.04,0,.06.01.04.03.07.06.1l.04.03s.07.03.11.03c.03,0,.06,0,.08-.02.03,0,.05-.02.07-.05.02-.02.04-.04.05-.07.01-.03.02-.05.02-.08,0-.02,0-.04,0-.06-.01-.04-.03-.07-.06-.1-.01-.01-.03-.02-.04-.03Z"/>
  <path d="M7.28,13.63s-.07-.03-.11-.03c-.03,0-.06,0-.08.02-.03,0-.05.02-.07.05-.02.02-.04.04-.05.07-.01.03-.02.05-.02.08,0,.02,0,.04,0,.06.01.04.03.07.06.1l.04.03s.07.03.11.03c.03,0,.06,0,.08-.02.03,0,.05-.02.07-.05.02-.02.04-.04.05-.07.01-.03.02-.05.02-.08,0-.02,0-.04,0-.06-.01-.04-.03-.07-.06-.1-.01-.01-.03-.02-.04-.03Z"/>
  <path d="M15.57,14.46s-.08-.03-.13-.03c-.04,0-.07,0-.1.02-.03.01-.06.03-.08.05-.02.02-.04.05-.05.08-.02.03-.02.06-.02.1,0,.02,0,.05,0,.07.01.04.03.08.07.11l.05.04s.08.03.13.03c.04,0,.07,0,.1-.02.03-.01.06-.03.08-.05.02-.02.04-.05.05-.08.02-.03.02-.06.02-.1,0-.02,0-.05,0-.07-.01-.04-.03-.08-.07-.11l-.05-.04Z"/>
  <path d="M8.59,14.36s-.08-.03-.13-.03c-.04,0-.07,0-.1.02-.03.01-.06.03-.08.05-.02.02-.04.05-.05.08-.02.03-.02.06-.02.1,0,.02,0,.05,0,.07.01.04.03.08.07.11l.05.04s.08.03.13.03c.04,0,.07,0,.1-.02.03-.01.06-.03.08-.05.02-.02.04-.05.05-.08.02-.03.02-.06.02-.1v-.07s-.04-.08-.07-.11l-.05-.04Z"/>
  <path d="M13.9,14.93s-.08-.03-.13-.03c-.03,0-.07,0-.1.02-.03.01-.06.03-.08.05-.02.02-.04.05-.05.08-.02.03-.02.06-.02.1,0,.02,0,.04,0,.07.01.04.03.08.06.11.02.01.03.03.05.04.04.02.08.03.13.03.03,0,.07,0,.1-.02.03-.01.06-.03.08-.05.02-.02.04-.05.05-.08.02-.03.02-.06.02-.1,0-.02,0-.04,0-.07-.01-.04-.03-.08-.06-.11l-.05-.04Z"/>
  <path d="M10.14,14.97s-.08-.03-.13-.03c-.03,0-.07,0-.1.02-.03.01-.06.03-.08.05-.02.02-.04.05-.05.08-.02.03-.02.06-.02.1v.07s.04.08.07.11c.02.01.03.03.05.04.04.02.08.03.13.03.03,0,.07,0,.1-.02.03-.01.06-.03.08-.05.02-.02.04-.05.05-.08.02-.03.02-.06.02-.1,0-.02,0-.04,0-.07-.01-.04-.03-.08-.06-.11l-.05-.04Z"/>
  <path d="M12.04,15.11s-.08-.03-.13-.03c-.03,0-.07,0-.1.02-.03.01-.06.03-.08.05-.02.02-.04.05-.05.08-.02.03-.02.06-.02.1,0,.02,0,.04,0,.07.01.04.03.08.06.11.02.01.03.03.05.04.04.02.08.03.13.03.03,0,.07,0,.1-.02.03-.01.06-.03.08-.05.02-.02.04-.05.05-.08.02-.03.02-.06.02-.1,0-.02,0-.04,0-.07-.01-.04-.03-.08-.06-.11l-.05-.04Z"/>
  <path d="M16.77,10.12s-.05-.02-.06,0l-1.11.99s-.02.05,0,.06c0,0,.02.01.03.01.01,0,.02,0,.03-.01l1.11-.99s.02-.05,0-.06Z"/>
  <path d="M6.81,11.06c-.11,0-.11.17,0,.17s.11-.17,0-.17Z"/>
  <path d="M7.16,11.33c-.09,0-.09.15,0,.15s.09-.15,0-.15Z"/>
  <path d="M7.55,11.71s.02-.03.02-.05c0-.04-.03-.07-.07-.07-.02,0-.04,0-.05.02-.01.01-.02.03-.02.05,0,.04.03.07.07.07.02,0,.04,0,.05-.02Z"/>
  <path d="M8.04,9.7s0,0,0,0c.09-.03.09-.15,0-.18,0,0,0,0,0,0-.15-.05-.15.22,0,.18Z"/>
  <path d="M8.39,9.98c-.12,0-.12.19,0,.19s.12-.19,0-.19Z"/>
  <path d="M8.76,10.52s.03-.04.03-.06c0-.02,0-.05-.03-.06-.02-.02-.04-.03-.06-.03-.02,0-.04,0-.06.03-.01.01-.03.04-.03.06,0,.02,0,.05.03.06.02.02.04.03.06.03.02,0,.04,0,.06-.03Z"/>
  <path d="M9.88,8.46s-.05,0-.06.03c-.02.02-.03.04-.03.06,0,.02,0,.05.03.06.02.02.04.03.06.03.02,0,.05,0,.06-.03.02-.02.03-.04.03-.06,0-.02,0-.05-.03-.06-.02-.02-.04-.03-.06-.03Z"/>
  <path d="M10.04,9.1c.12,0,.12-.19,0-.19s-.12.19,0,.19Z"/>
  <path d="M10.26,9.51s.02-.03.02-.05c0-.04-.03-.07-.07-.07-.02,0-.04,0-.05.02-.01.01-.02.03-.02.05,0,.04.03.07.07.07.02,0,.04,0,.05-.02Z"/>
  <path d="M11.93,7.98s-.04,0-.06.02c-.01.01-.03.04-.02.06,0,.02,0,.04.02.06.02.01.04.02.06.02.02,0,.04,0,.06-.02.01-.01.03-.04.02-.06,0-.02,0-.04-.02-.06-.02-.01-.04-.02-.06-.02Z"/>
  <path d="M11.98,8.52c-.13,0-.13.21,0,.21s.13-.21,0-.21Z"/>
  <path d="M11.94,9.18s.02.05.05.05c.03,0,.05-.02.05-.05,0-.03-.02-.05-.05-.05-.03,0-.05.02-.05.05Z"/>
  <path d="M14.12,8.59c.12,0,.12-.19,0-.19s-.12.19,0,.19Z"/>
  <path d="M13.98,9.09s.04,0,.05-.02c.01-.01.02-.03.02-.05,0-.04-.03-.08-.08-.08-.02,0-.04,0-.05.02-.01.01-.02.03-.02.05,0,.04.03.08.08.08Z"/>
  <path d="M13.83,9.44c-.12,0-.12.18,0,.18s.12-.18,0-.18Z"/>
  <path d="M16.01,9.56s.03-.05.03-.07c0-.03-.01-.05-.03-.07-.02-.02-.05-.03-.07-.03-.03,0-.05.01-.07.03-.02.02-.03.05-.03.07,0,.03.01.05.03.07.02.02.05.03.07.03.03,0,.05-.01.07-.03Z"/>
  <path d="M15.66,9.97c.09,0,.09-.14,0-.14s-.09.14,0,.14Z"/>
  <path d="M15.32,10.27s-.02.03-.02.05c0,.02,0,.04.02.05.01.01.03.02.05.02s.04,0,.05-.02c.01-.01.02-.03.02-.05,0-.02,0-.04-.02-.05-.01-.01-.03-.02-.05-.02-.02,0-.04,0-.05.02Z"/>
  <path d="M17.27,10.77s-.03.04-.03.06c0,.02,0,.05.03.06.02.02.04.03.06.03s.05,0,.06-.03c.01-.01.03-.04.03-.06,0-.02,0-.05-.03-.06-.02-.02-.04-.03-.06-.03-.02,0-.05,0-.06.03Z"/>
  <path d="M16.89,11.08s-.03.04-.03.06c0,.02,0,.05.03.06.02.02.04.03.06.03.02,0,.05-.01.06-.03.02-.02.03-.04.03-.06,0-.02,0-.05-.03-.06-.02-.02-.04-.03-.06-.03-.02,0-.05.01-.06.03Z"/>
  <path d="M16.52,11.43s-.02.04-.02.05c0,.04.03.08.08.08.02,0,.04,0,.05-.02.01-.01.02-.04.02-.05,0-.04-.03-.08-.08-.08-.02,0-.04,0-.05.02Z"/>
</svg>